PathFileType	3	(X/Y/Z)	D:\Vicon Database\Healthy Subjects\S0040\Jan. 30, 2020\Force Plate Walk 2.trc
DataRate	CameraRate	NumFrames	NumMarkers	Units	OrigDataRate	OrigDataStartFrame	OrigNumFrames
100.0	100.0	4	53	mm	100.0	459	306	
Frame#	Time	right_foot_cluster2			right_foot_cluster3			sternum_cluster1			sternum_cluster2			sternum_cluster3			left_asis			right_asis			left_psis			right_psis			sacrum_cluster1			sacrum_cluster2			sacrum_cluster3			left_lat_femoral_epicondyle			left_anterior_thigh15			left_anterior_thigh25			left_anterior_thigh50			left_lateral_thigh25			left_lateral_thigh50			left_thigh_cluster1			left_thigh_cluster2			left_thigh_cluster3			left_fibular_head			left_tibial_tuberosity			left_anterior_shank30			left_lateral_malleolus			left_shank_cluster1			left_shank_cluster2			left_shank_cluster3			left_heel			left_metatarsal2			left_foot_cluster1			left_foot_cluster2			left_foot_cluster3			right_lat_femoral_epicondyle			right_anterior_thigh15			right_anterior_thigh25			right_anterior_thigh50			right_lateral_thigh25			right_lateral_thigh50			right_thigh_cluster1			right_thigh_cluster2			right_thigh_cluster3			right_fibular_head			right_tibial_tuberosity			right_lateral_distal_shank			right_anterior_shank30			right_lateral_malleolus			right_shank_cluster1			right_shank_cluster2			right_shank_cluster3			right_heel			right_metatarsal2			right_foot_cluster1			
		X1	Y1	Z1	X2	Y2	Z2	X3	Y3	Z3	X4	Y4	Z4	X5	Y5	Z5	X6	Y6	Z6	X7	Y7	Z7	X8	Y8	Z8	X9	Y9	Z9	X10	Y10	Z10	X11	Y11	Z11	X12	Y12	Z12	X13	Y13	Z13	X14	Y14	Z14	X15	Y15	Z15	X16	Y16	Z16	X17	Y17	Z17	X18	Y18	Z18	X19	Y19	Z19	X20	Y20	Z20	X21	Y21	Z21	X22	Y22	Z22	X23	Y23	Z23	X24	Y24	Z24	X25	Y25	Z25	X26	Y26	Z26	X27	Y27	Z27	X28	Y28	Z28	X29	Y29	Z29	X30	Y30	Z30	X31	Y31	Z31	X32	Y32	Z32	X33	Y33	Z33	X34	Y34	Z34	X35	Y35	Z35	X36	Y36	Z36	X37	Y37	Z37	X38	Y38	Z38	X39	Y39	Z39	X40	Y40	Z40	X41	Y41	Z41	X42	Y42	Z42	X43	Y43	Z43	X44	Y44	Z44	X45	Y45	Z45	X46	Y46	Z46	X47	Y47	Z47	X48	Y48	Z48	X49	Y49	Z49	X50	Y50	Z50	X51	Y51	Z51	X52	Y52	Z52	X53	Y53	Z53	
459	4.58	604.35217	103.61819	-133.54048	603.24243	107.79404	-170.77463	865.99121	1415.2948	-83.479691	853.19501	1387.8763	-75.534767	856.6452	1390.3472	-113.29565	872.47009	1033.6031	37.619606	868.31042	1052.0565	-213.17137	1039.0492	1050.6835	-17.272982	1040.3922	1054.3518	-136.00215	1052.1663	1109.5964	-80.913063	1056.4041	1084.1841	-93.830833	1058.2136	1077.3295	-54.921886	1032.6519	521.9325	56.362015	909.34344	567.95764	18.859793	875.00879	653.35254	33.290638	855.06659	794.58575	45.854626	999.72919	667.28497	73.585068	961.27228	807.79535	98.68821	977.14362	766.21686	102.50522	984.87659	738.08075	100.20444	947.61566	740.59912	106.88883	1069.6937	452.84885	65.307487	1026.8069	408.36255	15.301808	1213.6713	236.08786	-8.2294397	1328.3882	181.94229	14.918072	1062.6417	365.44348	-16.125893	1076.449	342.86136	-7.2051697	1086.7356	351.20569	-44.9422	1403.6249	213.29268	-26.202806	1256.1989	54.564503	-27.441959	1257.1304	127.32124	-13.312744	1255.6301	97.128693	-6.0051384	1245.9609	101.20707	-42.989231	765.48657	529.54211	-218.23755	718.61304	639.38147	-156.37202	731.45343	718.57355	-160.993	773.49463	837.54749	-175.82889	817.96838	677.40674	-248.22266	869.31653	815.51489	-278.83408	857.43457	763.23596	-283.91238	838.27454	742.1507	-278.82907	874.33783	728.41809	-274.01569	757.61316	461.90976	-219.42998	705.9353	465.12006	-168.72052	725.93921	194.11032	-200.80608	686.74341	215.89783	-150.74434	714.90399	94.937775	-186.59338	712.96356	397.68805	-114.84161	714.72119	369.09207	-107.57671	686.26727	372.06937	-132.20476	788.43628	58.802963	-153.48178	570.68121	72.677483	-143.75487	628.29578	116.85018	-142.5735
460	4.59	603.44342	102.47424	-133.57281	602.37714	106.7012	-170.77614	850.98615	1416.2825	-84.226463	838.28052	1388.8229	-76.19632	841.53113	1391.3142	-113.98943	855.79919	1034.5452	36.600552	853.86237	1054.2133	-214.12419	1023.9165	1051.1969	-16.639988	1027.6019	1056.5636	-135.31009	1036.2355	1109.9086	-80.336433	1041.1954	1084.6111	-93.185661	1043.2236	1077.785	-54.107197	1006.0203	519.3598	58.374374	883.36578	566.79919	22.248217	851.17285	653.67706	34.345871	835.3717	795.63574	43.968685	975.94971	664.39246	74.03495	940.98572	805.95355	97.828468	955.66107	764.38776	102.06192	962.73932	736.03766	100.08035	925.39136	739.4859	106.78392	1043.7667	451.73834	67.354416	1000.866	405.68863	19.244427	1194.072	239.85715	-5.5580502	1310.201	190.30069	16.746315	1038.1929	363.07956	-12.756874	1055.6417	341.53436	-4.6696672	1062.1177	349.4248	-41.847301	1380.4908	229.15556	-25.101391	1249.6171	56.025639	-25.985422	1244.6251	128.55603	-10.762446	1246.0696	98.311859	-4.2463269	1234.5629	102.48679	-40.687054	749.56677	531.57507	-219.43517	704.13611	641.70258	-156.16335	717.08148	720.90997	-161.77057	758.70557	840.3028	-176.88232	801.27386	680.31464	-249.80832	854.45538	818.35114	-279.91287	841.86407	765.93805	-285.25894	823.38226	744.71466	-279.71588	858.65173	730.9906	-275.90106	744.07043	463.15515	-220.27634	694.0061	465.51523	-168.45891	721.30084	195.405	-201.49777	682.06415	215.71622	-150.77725	713.70905	94.894684	-186.56982	704.39435	397.94507	-115.06463	706.76996	369.52631	-107.81912	678.36993	371.42838	-132.14886	788.17194	58.972893	-153.52303	569.98059	71.150185	-143.81236	627.45422	115.90306	-142.58168
461	4.6	603.117	101.80085	-134.0345	601.99664	106.06103	-171.22102	836.15369	1417.3389	-84.870781	823.48682	1389.8649	-76.770973	826.53577	1392.3152	-114.58317	841.03015	1035.1512	35.205013	839.62579	1056.5923	-214.95532	1009.0234	1051.299	-16.04314	1011.2037	1056.9644	-134.65338	1021.289	1110.4563	-79.299065	1026.5243	1085.7484	-92.036606	1028.515	1078.5347	-53.169624	978.94385	516.4021	60.11816	857.16266	566.44409	25.544456	827.45038	654.56409	35.597919	815.97687	797.10144	42.6134	952.18835	661.93884	75.007736	920.94012	804.42188	97.385994	934.48395	762.64563	101.56286	940.83978	733.86249	100.2724	903.43597	738.64618	106.71097	1016.647	450.64697	69.043198	974.40027	403.5722	22.629555	1170.4661	244.23494	-1.8923491	1290.3859	198.77417	18.558344	1012.4078	360.99408	-9.4062023	1031.3204	340.08746	-1.2674379	1036.3	347.72586	-38.453476	1354.9617	244.58052	-23.849779	1241.656	58.872753	-24.178648	1230.0753	131.47569	-7.2531238	1234.3929	101.87472	-1.0087405	1221.483	104.95632	-37.45673	735.5434	532.70117	-221.03775	690.64459	643.62115	-157.81885	703.09082	722.54645	-163.18791	744.17554	842.60785	-177.66489	786.0332	682.81696	-251.55678	839.59631	820.92456	-281.02249	826.9043	768.22449	-286.79395	808.2193	747.18048	-281.33475	843.73193	733.09662	-277.73325	732.25781	463.84796	-221.87326	682.91956	465.43378	-169.67569	716.33813	195.93634	-202.78101	677.80524	215.43896	-151.47028	713.09326	94.745415	-186.85059	695.67651	398.28409	-116.22385	698.89026	369.82489	-109.03675	670.58618	370.94308	-133.39122	788.00226	59.121204	-153.64487	569.60718	70.343559	-144.33838	627.45508	115.05741	-142.9537
462	4.61	602.87238	101.29152	-134.34459	601.77612	105.49665	-171.52142	821.44464	1418.3678	-85.452133	808.76917	1390.9486	-77.248619	811.69476	1393.3783	-115.07341	826.57751	1035.8428	34.316936	825.50555	1058.922	-215.54381	994.50079	1051.7446	-15.365872	998.37378	1059.0847	-133.79269	1007.1601	1111.5156	-78.219139	1012.1749	1086.2588	-91.282448	1014.1618	1078.9806	-52.298054	951.42468	514.21436	61.437115	830.51215	567.16779	28.563686	804.12378	655.95441	36.991779	797.22144	798.8941	41.971638	928.52094	659.64893	76.212669	901.44476	803.21039	97.239075	913.6286	761.19189	101.89389	919.22363	732.31793	100.76727	881.99744	738.21307	107.10517	988.71527	449.57843	70.598663	947.4787	402.3671	24.926283	1149.3678	247.54071	-0.17528103	1269.2306	206.25616	20.27454	985.85016	359.29739	-6.3370156	1005.4421	339.36395	2.0178852	1009.7794	346.24481	-35.607605	1326.7583	258.80197	-22.385519	1231.5763	62.812672	-21.798632	1214.0322	134.33595	-3.7245266	1221.7292	104.69604	1.9312756	1207.3759	107.14576	-33.96999	723.96478	533.14703	-223.01958	677.94244	644.40924	-160.86366	689.68323	723.27332	-165.14697	729.93842	843.8324	-178.42578	772.23676	684.64148	-253.32951	825.16638	823.16058	-282.17313	813.1098	770.05884	-288.31036	793.66351	749.23438	-283.36746	829.75128	734.88245	-279.6499	722.51178	464.0972	-223.92139	672.90753	464.74973	-172.05975	713.01965	195.77942	-203.85475	674.65338	214.38194	-152.78604	712.703	94.579407	-187.28763	686.98865	398.06863	-118.05866	690.84241	369.74893	-110.80962	664.03113	369.27484	-136.30252	787.93127	59.363712	-153.79221	569.36157	69.597755	-144.61559	626.81696	114.78023	-143.25632
